<svg width="676" height="870" viewBox="0 0 676 870" fill="none" xmlns="http://www.w3.org/2000/svg">
<path d="M44.7904 589.848C67.8706 589.848 86.5808 570.63 86.5808 546.924C86.5808 523.218 67.8706 504 44.7904 504C21.7102 504 3 523.218 3 546.924C3 570.63 21.7102 589.848 44.7904 589.848Z" fill="#E0D3D4" stroke="black" stroke-width="6" stroke-miterlimit="10"/>
<path d="M28.3493 531.894C28.3493 531.894 5.03935 555.105 27.7087 576.296C46.7312 594.037 68.9569 572.501 68.9569 572.501C68.9569 572.501 35.3472 577.577 25.836 562.99C16.3247 548.403 28.3493 531.894 28.3493 531.894Z" fill="#2CADC5"/>
<path d="M480.668 551.745C535.787 501.906 608.978 417.251 631.002 346.262C638.665 364.364 673.601 381.228 671.338 437.313C670.041 469.715 618.994 586.832 604.03 610.063C599.233 617.515 587.498 563.904 565.896 553.978C544.024 543.932 511.441 557.93 491.861 571.929" fill="#2CADC5"/>
<path d="M483.872 554.943C508.641 532.497 531.811 508.241 553.322 482.657C575.949 455.746 597.037 427.176 613.992 396.313C622.56 380.745 630.042 364.454 635.382 347.468L627.116 348.555C631.37 358.299 640.179 365.932 646.726 374.108C656.35 386.115 662.987 399.873 665.612 415.078C668.056 429.318 667.06 441.627 663.561 455.022C660.061 468.417 655.083 482.718 650.045 496.294C639.003 526.071 626.603 555.426 612.786 583.996C610.342 589.064 607.808 594.133 605.153 599.081C604.127 600.981 603.071 602.912 601.985 604.783C601.563 605.507 601.11 606.201 600.718 606.895C600.356 607.528 599.994 607.558 600.386 607.468C601.744 607.166 602.045 605.869 604.006 606.351C604.67 606.502 604.821 606.864 605.092 606.955C604.7 606.834 604.489 606.14 605.002 606.925C604.519 606.17 604.036 605.446 603.614 604.662C602.377 602.429 601.351 600.106 600.326 597.783C597.52 591.478 594.835 585.142 591.758 578.958C585.331 565.985 577.095 552.107 562.373 547.823C542.4 542 519.955 550.327 502.547 559.921C498.082 562.365 493.768 565.08 489.634 568.006C484.928 571.355 489.423 579.199 494.19 575.82C510.783 564.084 532.595 553.223 553.533 555.305C561.437 556.089 567.562 559.257 572.66 565.201C577.427 570.752 580.927 577.389 584.155 583.905C587.383 590.422 590.008 596.788 592.934 603.214C594.593 606.864 596.404 612.114 599.994 614.346C604.791 617.303 607.808 612.808 609.919 609.157C612.363 604.964 614.626 600.619 616.798 596.275C631.038 568.006 643.438 538.682 654.842 509.146C660.453 494.604 665.793 479.912 670.198 464.948C673.728 453.001 676.322 441.235 675.96 428.684C675.417 410.703 670.56 393.175 660.725 378.06C654.118 367.893 644.916 359.385 638.218 349.701C636.951 347.891 635.835 345.96 634.93 343.939C633.27 340.137 627.719 341.646 626.663 345.025C617.039 375.737 600.326 404.036 582.073 430.374C562.222 459.035 539.715 485.855 515.701 511.107C503.422 524.019 490.69 536.54 477.476 548.487C473.162 552.409 479.558 558.805 483.872 554.883V554.943Z" fill="black"/>
<path d="M425.52 528.907C435.083 525.498 475.751 508.362 485.587 510.896C500.852 514.818 507.218 532.95 508.757 548.638C509.662 557.839 509.662 567.614 505.287 575.76C500.882 583.905 490.836 589.638 482.178 586.41" fill="white"/>
<path d="M426.725 533.282C442.624 527.549 458.131 520.55 474.604 516.538C477.711 515.783 480.879 514.939 484.077 515.21C484.288 515.21 484.982 515.361 484.077 515.21C484.499 515.301 484.982 515.421 485.374 515.542C486.521 515.934 487.607 516.326 488.663 516.93C490.925 518.197 492.856 519.856 494.576 521.817C501.816 530.144 504.049 542.423 504.652 553.103C505.075 560.615 504.743 568.942 500.338 575.368C496.597 580.768 489.9 584.238 483.443 582.096C477.892 580.255 475.539 589.004 481.03 590.814C496.114 595.823 509.63 582.729 512.677 568.821C515.725 554.913 513.462 539.346 508.001 526.735C503.717 516.809 494.606 505.948 482.749 506.189C473.156 506.371 463.26 510.262 454.3 513.37C444.223 516.869 434.388 521.003 424.372 524.593C418.941 526.554 421.264 535.303 426.785 533.312L426.725 533.282Z" fill="black"/>
<path d="M192.284 451.553C139.79 305.956 77.7012 167.147 7.52734 38.3845C110.495 138.547 202.783 269.331 276.728 419.936" fill="white"/>
<path d="M196.632 450.346C176.268 393.929 154.335 338.116 130.803 282.967C107.693 228.813 82.9846 175.353 56.6468 122.707C42.1051 93.5637 27.0205 64.6916 11.4531 36.0911L4.33315 41.5819C45.7858 81.9485 84.0103 125.634 119.097 171.612C156.628 220.818 190.749 272.619 221.673 326.229C239.805 357.636 256.82 389.676 272.81 422.228C275.374 427.448 283.188 422.862 280.624 417.673C252.385 360.2 220.889 304.296 185.862 250.655C152.827 200.061 116.684 151.459 77.1317 105.752C55.983 81.3149 33.8388 57.7225 10.6989 35.186C6.98805 31.5657 1.1352 36.1515 3.57892 40.6768C31.1537 91.301 57.1295 142.77 81.5666 194.993C106.667 248.664 130.139 303.09 152.042 358.149C164.502 389.495 176.449 421.052 187.883 452.76C189.844 458.19 198.593 455.837 196.602 450.346H196.632Z" fill="black"/>
<path d="M119.187 258.922L31.7559 73.5614L169.117 286.315L148.3 334.737L119.187 258.922Z" fill="#E0D4CA"/>
<path d="M199.58 653.809C215.389 671.971 251.381 721.237 260.311 743.351C261.397 746.037 262.453 749.053 261.397 751.769C260.311 754.544 257.355 756.143 254.609 757.501C213.639 777.714 171.221 795.243 127.777 809.935C183.41 817.96 235.633 840.044 288.882 857.573C305.414 863.003 323.667 868.011 339.988 861.947C348.828 858.659 356.099 852.444 363.158 846.38C373.506 837.45 383.855 828.519 394.233 819.589C395.56 818.443 396.948 817.206 397.401 815.547C398.275 812.349 395.409 809.422 392.785 807.28C365.119 784.834 335.372 764.802 303.996 747.515C295.066 742.597 285.714 737.68 279.348 729.866C274.913 724.405 272.168 717.858 269.513 711.432C260.794 690.374 252.105 669.346 243.386 648.288" fill="#2CADC5"/>
<path d="M196.381 657.006C214.06 677.4 229.96 699.937 244.169 722.866C247.428 728.145 250.595 733.485 253.371 739.006C254.487 741.178 255.573 743.411 256.418 745.704C257.052 747.484 257.866 749.354 256.569 750.953C255.332 752.492 252.798 753.337 251.048 754.181C232.162 763.473 213.004 772.192 193.575 780.278C171.552 789.449 149.196 797.836 126.599 805.499C122.828 806.766 121.803 813.524 126.599 814.218C162.26 819.438 196.683 830.329 230.653 842.125C247.91 848.098 265.077 854.283 282.394 860.106C298.353 865.446 315.218 871.087 332.264 868.523C349.309 865.959 362.433 852.925 375.255 841.883C382.284 835.819 389.314 829.786 396.343 823.722C398.938 821.489 401.382 819.226 401.955 815.697C402.558 811.775 400.477 808.305 397.761 805.62C391.607 799.526 383.944 794.457 377.035 789.268C370.126 784.079 362.463 778.588 354.981 773.49C340.409 763.534 325.385 754.242 309.969 745.613C302.034 741.178 293.496 737.166 286.738 731.011C279.98 724.857 276.33 716.017 272.77 707.449C264.443 687.326 256.116 667.203 247.79 647.05C245.587 641.74 236.838 644.063 239.071 649.464C246.07 666.389 253.069 683.314 260.099 700.239C266.374 715.414 271.382 730.951 284.988 741.178C291.173 745.824 298.082 749.324 304.81 753.065C312.322 757.259 319.743 761.603 327.044 766.128C341.646 775.119 355.886 784.743 369.674 794.97C376.552 800.069 383.521 805.228 390.038 810.809C390.732 811.413 393.145 813.102 393.055 814.279C392.964 815.244 390.611 816.692 389.947 817.265C386.267 820.463 382.556 823.631 378.845 826.829C372.087 832.652 365.329 838.505 358.541 844.327C352.568 849.456 346.262 854.675 338.81 857.481C322.972 863.485 305.473 858.115 290.117 853.106C273.675 847.706 257.353 841.853 241.032 836.151C204.466 823.36 167.479 811.111 129.013 805.499V814.218C171.853 799.707 213.759 782.51 254.367 762.599C257.987 760.819 261.969 759.099 264.353 755.69C267.279 751.436 266.495 746.609 264.715 742.083C262.512 736.502 259.616 731.192 256.629 726.003C248.876 712.578 240.096 699.726 231.076 687.145C222.055 674.564 212.884 662.195 202.807 650.55C198.976 646.145 192.61 652.571 196.411 656.946L196.381 657.006Z" fill="black"/>
<path d="M361.82 202.638C376.609 198.281 390.171 207.038 402.536 224.055C414.954 241.145 426.018 266.383 435.71 294.316C455.091 350.176 468.922 416.619 477.15 449.773C479.202 458.04 480.105 464.019 480.131 468.16C480.144 470.231 479.936 471.818 479.559 472.992C479.182 474.165 478.647 474.895 478.021 475.309C476.778 476.131 474.888 475.868 472.392 474.527C469.935 473.207 467.077 470.938 464.064 468.127C458.045 462.511 451.501 454.822 446.456 448.525C443.935 445.379 441.792 442.584 440.279 440.576C439.523 439.573 438.923 438.766 438.514 438.21C438.309 437.933 438.152 437.718 438.046 437.573C437.993 437.5 437.953 437.445 437.926 437.407C437.912 437.389 437.901 437.375 437.895 437.365C437.891 437.361 437.889 437.357 437.888 437.355C437.887 437.354 437.886 437.353 437.886 437.353C437.885 437.352 437.885 437.352 437.479 437.645L437.885 437.352L437.877 437.341C380.283 361.856 361.319 303.086 356.734 263.224C354.442 243.291 355.743 228.079 357.613 217.86C358.548 212.75 359.625 208.887 360.467 206.307C360.887 205.017 361.249 204.047 361.505 203.402C361.633 203.079 361.735 202.838 361.804 202.678C361.81 202.664 361.815 202.651 361.82 202.638Z" fill="#261C13" stroke="black"/>
<path d="M277.002 134.232C279.446 161.867 308.499 182.563 336.134 180.331C363.769 178.098 387.542 156.678 397.589 130.823C410.35 98.0892 402.416 58.2657 378.099 32.8933C353.813 7.52094 314.352 -2.10308 281.105 9.24059C245.747 21.3083 220.917 53.4387 204.475 87.0171C167.88 161.656 167.668 230.623 181.818 312.533C195.967 394.443 130.017 518.8 164.139 594.616C171.802 611.601 188.877 647.714 197.747 653.446C204.354 657.7 210.026 664.428 226.197 660.566C236.123 658.183 259.866 648.679 272.326 653.446C326.962 674.474 449.239 644.033 469.482 589.095C489.726 534.157 473.193 471.706 443.899 421.022C424.017 386.568 398.494 355.584 378.854 320.98C359.213 286.376 356.196 216.021 362.834 176.771" fill="white"/>
<path d="M272.484 134.232C275.531 164.462 305.399 186.666 335.115 184.916C366.884 183.046 393.131 157.945 403.147 128.832C413.163 99.7183 407.431 62.8816 387.942 37.4488C368.452 12.0161 336.292 -1.65062 304.644 0.159536C272.997 1.9697 243.763 21.5798 223.851 47.0427C202.22 74.7683 187.678 108.709 178.718 142.529C169.637 176.801 167.193 212.461 169.335 247.789C170.451 266.223 172.744 284.596 175.61 302.818C177.873 317.149 179.653 330.966 179.14 345.538C178.084 375.375 171.567 404.821 165.413 433.964C159.258 463.108 152.35 494.273 150.238 524.985C149.272 538.893 149.453 552.862 151.475 566.679C153.345 579.32 157.418 590.965 162.758 602.52C168.46 614.92 174.403 627.259 181.282 639.085C184.178 644.063 187.256 649.041 191.027 653.416C193.953 656.765 197.966 659.359 201.737 661.712C213.774 669.255 226.506 665.272 239.086 661.531C245.905 659.51 252.904 657.459 259.994 656.825C262.89 656.584 265.907 656.463 268.773 657.127C271.277 657.7 273.691 658.816 276.165 659.57C298.58 666.449 323.259 665.574 346.188 662.437C372.133 658.907 397.868 651.606 421.369 639.96C440.738 630.367 460.891 616.67 470.938 596.848C477.967 582.94 480.984 566.528 482.281 551.142C483.82 533.342 482.281 515.361 478.721 497.863C471.3 461.599 454.737 428.292 434.644 397.459C423.783 380.776 412.107 364.665 401.066 348.102C392.075 334.617 382.33 320.769 376.659 305.443C366.341 277.476 363.867 246.341 364.138 216.745C364.259 203.772 365.013 190.739 367.155 177.947C368.09 172.245 359.372 169.802 358.436 175.534C353.851 203.048 354.092 231.709 357.35 259.344C358.979 273.282 361.393 287.19 365.526 300.616C369.901 314.826 377.021 327.316 384.955 339.836C404.776 371.212 428.188 400.386 445.535 433.301C461.796 464.103 473.11 498.496 473.834 533.553C474.377 559.438 470.274 589.035 451.388 608.252C435.398 624.514 413.676 634.892 392.347 642.223C368.875 650.278 344.015 655.075 319.186 655.528C308.506 655.739 297.705 655.166 287.206 652.963C282.5 651.998 278.005 650.58 273.51 649.011C267.476 646.929 260.989 647.412 254.805 648.347C247.866 649.403 241.108 651.395 234.41 653.416C228.316 655.256 222.071 657.549 215.615 657.097C206.715 656.463 198.991 649.584 194.406 642.887C187.075 632.207 181.312 620.38 175.701 608.735C170.512 597.965 165.292 587.224 162.426 575.549C156.091 549.603 158.625 521.968 162.637 495.902C167.253 466.095 174.434 436.74 180.136 407.144C185.325 380.293 189.971 352.567 187.859 325.113C186.592 308.731 182.911 292.561 180.98 276.269C179.049 259.978 177.692 242.148 177.632 225.012C177.481 190.679 182.549 156.618 193.802 124.125C205.055 91.6329 219.778 61.9765 243.28 38.6858C265.364 16.813 295.141 4.74527 326.276 10.4774C357.41 16.2096 383.054 36.9359 393.614 66.6527C404.173 96.3695 399.829 128.681 379.645 152.002C369.931 163.225 357.109 171.793 342.447 174.87C327.784 177.947 314.118 174.508 302.351 166.694C291.34 159.363 282.862 147.627 281.504 134.262C280.931 128.53 271.88 128.47 272.454 134.262L272.484 134.232Z" fill="black"/>
<g style="mix-blend-mode:multiply">
<path d="M273.241 129.646C275.504 151.881 302.476 168.565 328.15 166.755C353.824 164.944 375.877 147.718 385.2 126.901C397.026 100.533 389.695 68.4931 367.128 48.0685C344.562 27.6439 308.027 26.2561 277.133 35.3672C244.309 45.0817 228.923 72.0229 213.657 99.0245C179.686 159.122 186.656 203.38 199.779 269.33C211.968 160.087 346.794 195.446 352.949 163.858" fill="#E0D4CA"/>
</g>
<path d="M197.871 611.661C215.581 632.055 238.268 650.368 264.938 657.005C270.579 658.423 272.993 649.674 267.351 648.287C242.13 642.011 221.011 624.543 204.267 605.265C200.436 600.86 194.07 607.286 197.871 611.661Z" fill="black"/>
<path d="M167.029 258.164C168.005 258.031 169.112 258.6 170.285 259.807C172.613 262.2 174.77 266.663 175.999 270.334V270.335C183.379 292.281 186.403 323.424 186.704 357.781C187.006 392.127 184.588 429.639 181.112 464.299C177.636 498.957 173.103 530.755 169.176 553.668C167.212 565.125 165.4 574.355 163.949 580.609C163.223 583.739 162.59 586.11 162.076 587.64C161.817 588.41 161.598 588.937 161.425 589.237C161.423 589.241 161.42 589.244 161.418 589.247C146.446 576.788 131.877 552.866 122.503 515.752C113.077 478.432 108.913 427.814 114.853 362.207C117.075 337.674 128.793 313.632 140.246 295.136C145.97 285.893 151.62 278.045 155.972 272.225C158.149 269.313 159.996 266.916 161.373 265.094C162.06 264.185 162.63 263.418 163.062 262.807C163.487 262.206 163.802 261.723 163.954 261.394L163.955 261.393C164.989 259.141 166.069 258.294 167.029 258.164Z" fill="#261C13" stroke="black"/>
<path d="M186.684 565.955C186.684 565.955 276.467 675.349 380.733 644.396C484.968 613.442 476.731 558.715 468.465 501.966C465.207 479.671 456.065 455.506 432.352 415.26C408.609 375.014 377.655 345.086 377.655 345.086C377.655 345.086 545.91 596.939 335.328 622.734C242.768 634.078 186.684 565.955 186.684 565.955Z" fill="#E0D4CA"/>
<path d="M299.995 135.134C312.665 130.202 318.659 115.215 313.382 101.66C308.105 88.1044 293.557 81.1141 280.887 86.0464C268.216 90.9786 262.223 105.966 267.5 119.521C272.776 133.076 287.325 140.066 299.995 135.134Z" fill="white" stroke="black" stroke-width="6" stroke-miterlimit="10"/>
<path d="M292.016 87.7014L286.917 108.066L287.37 87.4902C280.129 88.3048 274.518 94.4292 274.518 101.881C274.518 109.876 281.004 116.362 288.999 116.362C296.994 116.362 303.48 109.876 303.48 101.881C303.48 94.9119 298.563 89.1194 292.016 87.7316V87.7014ZM298.502 101.851C296.602 102.937 294.339 102.515 293.404 100.885C292.468 99.2563 293.253 97.0841 295.123 95.998C297.024 94.9119 299.287 95.3343 300.222 96.9634C301.157 98.5925 300.373 100.765 298.502 101.851Z" fill="black"/>
<path d="M378.198 173.671C389.16 169.404 394.597 157.083 390.342 146.152C386.086 135.221 373.75 129.819 362.788 134.087C351.826 138.354 346.389 150.675 350.644 161.606C354.899 172.537 367.236 177.939 378.198 173.671Z" fill="white" stroke="black" stroke-width="6" stroke-miterlimit="10"/>
<path d="M369.338 135.973L364.571 154.044L364.994 135.761C358.236 136.485 352.986 141.916 352.986 148.523C352.986 155.613 359.05 161.375 366.502 161.375C373.954 161.375 380.018 155.613 380.018 148.523C380.018 142.338 375.432 137.179 369.308 135.942L369.338 135.973ZM375.372 148.553C373.622 149.519 371.48 149.126 370.605 147.708C369.73 146.26 370.454 144.329 372.204 143.364C373.954 142.399 376.096 142.791 376.971 144.209C377.846 145.627 377.122 147.588 375.372 148.553Z" fill="black"/>
<path d="M303.013 155.532C295.984 209.806 277.611 287.643 261.621 339.987C294.506 292.772 314.84 215.78 336.139 157.432" fill="#2CADC5"/>
<path d="M298.49 155.532C292.064 204.708 280.781 253.431 267.959 301.28C264.61 313.83 261.05 326.35 257.249 338.78C255.68 343.939 262.71 346.322 265.515 342.28C279.665 321.825 290.013 298.987 299.245 275.968C309.261 250.897 317.769 225.253 326.337 199.669C330.923 185.972 335.569 172.245 340.516 158.669C342.508 153.178 333.758 150.825 331.797 156.256C313.967 205.19 300.391 255.995 277.613 302.999C271.791 315.007 265.304 326.743 257.702 337.724L265.968 341.224C280.63 293.194 292.426 244.079 301.387 194.691C303.74 181.719 305.822 168.685 307.541 155.592C307.873 153.148 305.218 151.097 303.016 151.067C300.301 151.067 298.792 153.178 298.49 155.592V155.532Z" fill="black"/>
<path d="M291.395 67.9802C291.395 67.9802 315.952 62.8212 327.598 89.9736" stroke="black" stroke-width="6" stroke-miterlimit="10" stroke-linecap="round"/>
<path d="M359.525 115.014C359.525 115.014 381.579 103.007 400.525 125.664" stroke="black" stroke-width="6" stroke-miterlimit="10" stroke-linecap="round"/>
</svg>
